<?xml version="1.0" standalone="no"?>
<!DOCTYPE svg PUBLIC "-//W3C//DTD SVG 20010904//EN"
 "http://www.w3.org/TR/2001/REC-SVG-20010904/DTD/svg10.dtd">
<svg version="1.0" xmlns="http://www.w3.org/2000/svg"
 width="700.000000pt" height="700.000000pt" viewBox="0 0 700.000000 700.000000"
 preserveAspectRatio="xMidYMid meet">
<metadata>
Created by potrace 1.11, written by Peter Selinger 2001-2013
</metadata>
<g transform="translate(0.000000,700.000000) scale(0.100000,-0.100000)"
fill="#000000" stroke="none">
<path d="M3447 6568 c-488 -845 -3405 -5963 -3401 -5967 3 -3 1566 -6 3474 -6
l3468 -1 -10 21 c-6 11 -55 97 -109 191 -54 94 -106 186 -117 205 -10 19 -191
335 -402 704 -211 369 -391 684 -400 700 -9 17 -81 143 -160 280 -79 138 -152
266 -163 285 -11 19 -45 80 -77 135 -32 55 -68 118 -80 140 -12 22 -48 85 -80
140 -32 55 -67 118 -79 139 -12 21 -67 117 -122 212 -54 95 -108 190 -120 211
-11 21 -28 52 -38 68 -18 30 -330 575 -361 630 -9 17 -81 143 -160 280 -79
138 -152 265 -162 284 -11 19 -65 113 -121 210 -55 97 -111 194 -123 216 -12
22 -150 264 -307 538 l-285 498 -65 -113z m205 -675 c75 -131 145 -254 156
-273 11 -19 63 -111 116 -204 53 -92 107 -187 120 -210 13 -22 102 -178 198
-346 96 -168 186 -325 200 -350 14 -25 122 -214 240 -420 118 -206 229 -400
246 -430 l30 -56 -1444 0 c-1291 0 -1444 2 -1439 15 4 9 115 207 249 441 134
234 254 445 268 470 29 52 482 845 500 875 21 36 201 349 227 396 155 275 187
329 192 329 3 0 67 -107 141 -237z m-1646 -2586 c27 -45 56 -96 65 -113 10
-17 60 -105 112 -195 51 -90 105 -184 119 -209 81 -146 203 -359 219 -382 11
-15 19 -30 19 -33 0 -3 11 -22 23 -43 13 -20 35 -57 48 -82 21 -38 198 -349
252 -441 19 -33 125 -218 165 -289 14 -25 103 -181 199 -348 95 -166 173 -304
173 -305 0 -2 -2880 -1 -2892 2 -5 1 230 423 301 541 23 37 658 1148 672 1175
9 16 48 86 87 153 40 68 72 126 72 128 0 3 11 21 24 42 14 20 37 60 53 88 119
214 229 401 235 398 3 -2 28 -41 54 -87z m3146 -39 c42 -73 85 -149 96 -168
11 -19 153 -269 317 -555 164 -286 309 -540 323 -565 14 -25 28 -49 32 -55 4
-5 21 -35 37 -65 17 -30 64 -113 105 -185 41 -71 86 -150 100 -175 14 -25 56
-99 95 -165 38 -66 72 -127 76 -135 4 -8 13 -24 20 -35 51 -85 156 -273 159
-285 3 -13 -170 -15 -1439 -15 -794 -1 -1443 2 -1443 6 0 6 40 76 205 367 95
167 309 541 316 552 7 11 734 1285 891 1560 28 49 29 50 32 50 2 0 37 -60 78
-132z m-432 65 c0 -2 -61 -110 -136 -240 -75 -131 -148 -258 -162 -283 -57
-102 -501 -878 -521 -910 -11 -19 -24 -42 -28 -50 -4 -8 -65 -116 -136 -239
-70 -123 -142 -249 -159 -280 -17 -31 -39 -69 -49 -84 l-17 -29 -40 69 c-36
61 -701 1226 -742 1298 -9 17 -108 189 -218 382 -111 194 -202 356 -202 360 0
5 542 8 1205 8 663 0 1205 -1 1205 -2z"/>
</g>
</svg>
